<svg width="39" height="39" viewBox="0 0 39 39" fill="none" xmlns="http://www.w3.org/2000/svg">
<g id="SvgjsG2402">
<path id="Vector" fill-rule="evenodd" clip-rule="evenodd" d="M37.2058 16C36.6673 16 36.2267 15.55 36.2267 15C36.2267 14.45 36.6673 14 37.2058 14C37.7443 14 38.1849 14.45 38.1849 15C38.1849 15.55 37.7443 16 37.2058 16ZM32.3103 35C31.2333 35 30.3521 34.1 30.3521 33C30.3521 31.9 31.2333 31 32.3103 31C33.3873 31 34.2685 31.9 34.2685 33C34.2685 34.1 33.3873 35 32.3103 35ZM32.3103 26C31.2333 26 30.3521 25.1 30.3521 24C30.3521 22.9 31.2333 22 32.3103 22C33.3873 22 34.2685 22.9 34.2685 24C34.2685 25.1 33.3873 26 32.3103 26ZM32.3103 17C31.2333 17 30.3521 16.1 30.3521 15C30.3521 13.9 31.2333 13 32.3103 13C33.3873 13 34.2685 13.9 34.2685 15C34.2685 16.1 33.3873 17 32.3103 17ZM32.3103 8C31.2333 8 30.3521 7.1 30.3521 6C30.3521 4.9 31.2333 4 32.3103 4C33.3873 4 34.2685 4.9 34.2685 6C34.2685 7.1 33.3873 8 32.3103 8ZM23.988 28C22.0787 28 20.5611 26.45 20.5611 24.5C20.5611 22.55 22.0787 21 23.988 21C25.8972 21 27.4148 22.55 27.4148 24.5C27.4148 26.45 25.8972 28 23.988 28ZM23.988 18C22.0787 18 20.5611 16.45 20.5611 14.5C20.5611 12.55 22.0787 11 23.988 11C25.8972 11 27.4148 12.55 27.4148 14.5C27.4148 16.45 25.8972 18 23.988 18ZM23.4984 8C22.4214 8 21.5402 7.1 21.5402 6C21.5402 4.9 22.4214 4 23.4984 4C24.5754 4 25.4566 4.9 25.4566 6C25.4566 7.1 24.5754 8 23.4984 8ZM23.4984 2C22.9599 2 22.5193 1.55 22.5193 1C22.5193 0.45 22.9599 0 23.4984 0C24.0369 0 24.4775 0.45 24.4775 1C24.4775 1.55 24.0369 2 23.4984 2ZM14.197 28C12.2877 28 10.7701 26.45 10.7701 24.5C10.7701 22.55 12.2877 21 14.197 21C16.1062 21 17.6238 22.55 17.6238 24.5C17.6238 26.45 16.1062 28 14.197 28ZM14.197 18C12.2877 18 10.7701 16.45 10.7701 14.5C10.7701 12.55 12.2877 11 14.197 11C16.1062 11 17.6238 12.55 17.6238 14.5C17.6238 16.45 16.1062 18 14.197 18ZM14.6865 8C13.6095 8 12.7283 7.1 12.7283 6C12.7283 4.9 13.6095 4 14.6865 4C15.7635 4 16.6447 4.9 16.6447 6C16.6447 7.1 15.7635 8 14.6865 8ZM14.6865 2C14.148 2 13.7074 1.55 13.7074 1C13.7074 0.45 14.148 0 14.6865 0C15.225 0 15.6656 0.45 15.6656 1C15.6656 1.55 15.225 2 14.6865 2ZM5.8746 8C4.79759 8 3.9164 7.1 3.9164 6C3.9164 4.9 4.79759 4 5.8746 4C6.95161 4 7.8328 4.9 7.8328 6C7.8328 7.1 6.95161 8 5.8746 8ZM5.8746 13C6.95161 13 7.8328 13.9 7.8328 15C7.8328 16.1 6.95161 17 5.8746 17C4.79759 17 3.9164 16.1 3.9164 15C3.9164 13.9 4.79759 13 5.8746 13ZM0.9791 25C0.440595 25 0 24.55 0 24C0 23.45 0.440595 23 0.9791 23C1.51761 23 1.9582 23.45 1.9582 24C1.9582 24.55 1.51761 25 0.9791 25ZM0.9791 16C0.440595 16 0 15.55 0 15C0 14.45 0.440595 14 0.9791 14C1.51761 14 1.9582 14.45 1.9582 15C1.9582 15.55 1.51761 16 0.9791 16ZM5.8746 22C6.95161 22 7.8328 22.9 7.8328 24C7.8328 25.1 6.95161 26 5.8746 26C4.79759 26 3.9164 25.1 3.9164 24C3.9164 22.9 4.79759 22 5.8746 22ZM5.8746 31C6.95161 31 7.8328 31.9 7.8328 33C7.8328 34.1 6.95161 35 5.8746 35C4.79759 35 3.9164 34.1 3.9164 33C3.9164 31.9 4.79759 31 5.8746 31ZM14.6865 31C15.7635 31 16.6447 31.9 16.6447 33C16.6447 34.1 15.7635 35 14.6865 35C13.6095 35 12.7283 34.1 12.7283 33C12.7283 31.9 13.6095 31 14.6865 31ZM14.6865 37C15.225 37 15.6656 37.45 15.6656 38C15.6656 38.55 15.225 39 14.6865 39C14.148 39 13.7074 38.55 13.7074 38C13.7074 37.45 14.148 37 14.6865 37ZM23.4984 31C24.5754 31 25.4566 31.9 25.4566 33C25.4566 34.1 24.5754 35 23.4984 35C22.4214 35 21.5402 34.1 21.5402 33C21.5402 31.9 22.4214 31 23.4984 31ZM23.4984 37C24.0369 37 24.4775 37.45 24.4775 38C24.4775 38.55 24.0369 39 23.4984 39C22.9599 39 22.5193 38.55 22.5193 38C22.5193 37.45 22.9599 37 23.4984 37ZM37.2058 23C37.7443 23 38.1849 23.45 38.1849 24C38.1849 24.55 37.7443 25 37.2058 25C36.6673 25 36.2267 24.55 36.2267 24C36.2267 23.45 36.6673 23 37.2058 23Z" fill="#4D8800"/>
</g>
</svg>
