<svg width="214" height="19" viewBox="0 0 214 19" fill="none" xmlns="http://www.w3.org/2000/svg">
<g id="SvgjsG2403">
<path id="Vector" d="M12.2072 5.41077C12.2072 6.53114 11.8018 7.62716 11.158 8.50397C12.3742 9.57563 13.1373 11.1831 13.1373 12.9368C13.1373 16.1517 10.6095 18.7578 7.4617 18.7578H0.164551V0.490868H7.4617C10.1087 0.490868 12.2072 2.70726 12.2072 5.41077ZM3.98006 3.73021V7.11568H7.53325C7.98634 6.9939 8.39173 6.23887 8.39173 5.41077C8.39173 4.5096 7.98634 3.73021 7.4617 3.73021H3.98006ZM7.4617 15.5185C8.48712 15.5185 9.29792 14.3494 9.29792 12.9368C9.29792 11.5485 8.51097 10.4037 7.53325 10.355H3.98006V15.5185H7.4617ZM22.7806 0.490868L30.1255 18.7578H26.0238L24.5691 15.2506H18.4882L17.0812 18.7578H12.9557L20.3244 0.490868H22.7806ZM19.7044 12.0112H23.3768L21.5406 6.75035C20.9921 8.26041 20.3244 10.3063 19.7044 12.0112ZM42.7258 13.2047L45.2536 15.7864C43.4174 17.881 40.8896 18.977 38.2188 18.977C33.1155 18.977 29.0377 14.9339 29.0377 9.62435C29.0377 4.33911 33.1155 0.296021 38.2188 0.296021C40.8896 0.296021 43.4174 1.39204 45.2774 3.511L42.702 6.14145C41.7004 4.43653 39.9834 3.53536 38.2188 3.53536C35.0471 3.53536 32.8532 6.48243 32.8532 9.62435C32.8532 12.7663 35.0233 15.7377 38.2188 15.7377C39.578 15.7377 40.9134 15.3236 42.7258 13.2047ZM65.0796 0.490868L56.137 8.2117C58.8317 11.4754 62.1702 15.5672 64.7934 18.7578H59.6902L53.2515 10.6473L51.5822 12.0599V18.7578H47.7667V0.490868H51.5822V7.45667C54.2292 5.14285 56.9716 2.78033 59.5709 0.490868H65.0796ZM78.4669 0.490868V3.73021H73.2921V18.7578H69.4527V3.73021H64.278V0.490868H78.4669ZM83.6508 15.5185H92.7604V18.7578H79.8353V0.490868H92.3311V3.73021H83.6508V7.65152H90.7572V10.9152H83.6508V15.5185ZM101.951 7.89507C104.812 8.77189 108.055 10.1845 108.055 13.7161C108.055 17.2965 105.003 18.977 101.164 18.977C98.0159 18.977 95.9889 17.6375 94.0811 15.5428L96.752 12.8393C97.3958 14.2033 99.3751 15.7377 101.164 15.7377C102.451 15.7133 104.216 15.3723 104.216 13.7161C104.216 12.1087 102.428 11.451 100.949 10.9883C98.2543 10.1602 94.9873 8.79624 94.9873 5.3377C94.9873 2.02529 98.0397 0.296021 101.164 0.296021C103.835 0.296021 106.338 1.6356 108.222 3.75456L105.647 6.38501C104.836 5.28899 103.167 3.53536 101.164 3.53536C100.019 3.53536 98.8028 4.04684 98.8028 5.36206C98.8028 6.84777 100.591 7.45667 101.951 7.89507ZM122.683 0.490868V3.73021H117.508V18.7578H113.669V3.73021H108.494V0.490868H122.683ZM142.16 5.41077C142.16 6.53114 141.755 7.62716 141.111 8.50397C142.327 9.57563 143.09 11.1831 143.09 12.9368C143.09 16.1517 140.562 18.7578 137.415 18.7578H130.118V0.490868H137.415C140.062 0.490868 142.16 2.70726 142.16 5.41077ZM133.933 3.73021V7.11568H137.486C137.939 6.9939 138.345 6.23887 138.345 5.41077C138.345 4.5096 137.939 3.73021 137.415 3.73021H133.933ZM137.415 15.5185C138.44 15.5185 139.251 14.3494 139.251 12.9368C139.251 11.5485 138.464 10.4037 137.486 10.355H133.933V15.5185H137.415ZM155.404 0.490868H159.244V11.4754C159.244 14.4712 158.051 18.977 151.851 18.977C145.675 18.977 144.435 14.4712 144.435 11.4754V0.490868H148.25V11.4754C148.25 12.3766 148.441 15.7377 151.851 15.7377C155.261 15.7377 155.404 12.3766 155.404 11.4754V0.490868ZM177.615 9.62435C177.615 14.666 173.728 18.7335 168.887 18.7578H161.709V0.490868H168.887C173.728 0.515224 177.615 4.60702 177.615 9.62435ZM168.863 15.5185C171.796 15.4941 173.8 12.5714 173.8 9.62435C173.8 6.67728 171.773 3.77892 168.863 3.73021H165.525V15.5185H168.863ZM195.724 9.62435C195.724 14.666 191.837 18.7335 186.996 18.7578H179.818V0.490868H186.996C191.837 0.515224 195.724 4.60702 195.724 9.62435ZM186.972 15.5185C189.905 15.4941 191.909 12.5714 191.909 9.62435C191.909 6.67728 189.882 3.77892 186.972 3.73021H183.634V15.5185H186.972ZM209.421 0.490868H214L206.607 11.5485V18.7578H202.768V11.5485L195.376 0.490868H199.954L204.676 7.87072L209.421 0.490868Z" fill="#678E35"/>
</g>
</svg>
