<svg id="162915953" viewBox="0 0 374.969696969697 53.03030303030304" height="53.03030303030304" width="374.969696969697" style="width: 374.97px; height: 53.0303px; position: absolute; top: 50%; left: 50%; transform: translate(-50%, -50%) scale(0.629251); z-index: 0; cursor: pointer; overflow: visible;"><defs id="SvgjsDefs2401"></defs><g id="SvgjsG2402" featurekey="nRdZyp-0" transform="matrix(0.67987567987568,0,0,0.67987567987568,165.5497280497281,-243.73543123543126)" fill="#4d8800"><path xmlns="http://www.w3.org/2000/svg" d="M-167.5,390.5c-1.1,0-2-0.9-2-2c0-1.1,0.9-2,2-2c1.1,0,2,0.9,2,2C-165.5,389.6-166.4,390.5-167.5,390.5z   M-177.5,428.5c-2.2,0-4-1.8-4-4s1.8-4,4-4c2.2,0,4,1.8,4,4S-175.3,428.5-177.5,428.5z M-177.5,410.5c-2.2,0-4-1.8-4-4s1.8-4,4-4  c2.2,0,4,1.8,4,4S-175.3,410.5-177.5,410.5z M-177.5,392.5c-2.2,0-4-1.8-4-4c0-2.2,1.8-4,4-4c2.2,0,4,1.8,4,4  C-173.5,390.7-175.3,392.5-177.5,392.5z M-177.5,374.5c-2.2,0-4-1.8-4-4c0-2.2,1.8-4,4-4c2.2,0,4,1.8,4,4  C-173.5,372.7-175.3,374.5-177.5,374.5z M-194.5,414.5c-3.9,0-7-3.1-7-7c0-3.9,3.1-7,7-7c3.9,0,7,3.1,7,7  C-187.5,411.4-190.6,414.5-194.5,414.5z M-194.5,394.5c-3.9,0-7-3.1-7-7c0-3.9,3.1-7,7-7c3.9,0,7,3.1,7,7  C-187.5,391.4-190.6,394.5-194.5,394.5z M-195.5,374.5c-2.2,0-4-1.8-4-4c0-2.2,1.8-4,4-4c2.2,0,4,1.8,4,4  C-191.5,372.7-193.3,374.5-195.5,374.5z M-195.5,362.5c-1.1,0-2-0.9-2-2c0-1.1,0.9-2,2-2c1.1,0,2,0.9,2,2  C-193.5,361.6-194.4,362.5-195.5,362.5z M-214.5,414.5c-3.9,0-7-3.1-7-7c0-3.9,3.1-7,7-7s7,3.1,7,7  C-207.5,411.4-210.6,414.5-214.5,414.5z M-214.5,394.5c-3.9,0-7-3.1-7-7c0-3.9,3.1-7,7-7s7,3.1,7,7  C-207.5,391.4-210.6,394.5-214.5,394.5z M-213.5,374.5c-2.2,0-4-1.8-4-4c0-2.2,1.8-4,4-4c2.2,0,4,1.8,4,4  C-209.5,372.7-211.3,374.5-213.5,374.5z M-213.5,362.5c-1.1,0-2-0.9-2-2c0-1.1,0.9-2,2-2c1.1,0,2,0.9,2,2  C-211.5,361.6-212.4,362.5-213.5,362.5z M-231.5,374.5c-2.2,0-4-1.8-4-4c0-2.2,1.8-4,4-4c2.2,0,4,1.8,4,4  C-227.5,372.7-229.3,374.5-231.5,374.5z M-231.5,384.5c2.2,0,4,1.8,4,4c0,2.2-1.8,4-4,4c-2.2,0-4-1.8-4-4  C-235.5,386.3-233.7,384.5-231.5,384.5z M-241.5,408.5c-1.1,0-2-0.9-2-2c0-1.1,0.9-2,2-2c1.1,0,2,0.9,2,2  C-239.5,407.6-240.4,408.5-241.5,408.5z M-241.5,390.5c-1.1,0-2-0.9-2-2c0-1.1,0.9-2,2-2c1.1,0,2,0.9,2,2  C-239.5,389.6-240.4,390.5-241.5,390.5z M-231.5,402.5c2.2,0,4,1.8,4,4s-1.8,4-4,4c-2.2,0-4-1.8-4-4S-233.7,402.5-231.5,402.5z   M-231.5,420.5c2.2,0,4,1.8,4,4s-1.8,4-4,4c-2.2,0-4-1.8-4-4S-233.7,420.5-231.5,420.5z M-213.5,420.5c2.2,0,4,1.8,4,4  c0,2.2-1.8,4-4,4c-2.2,0-4-1.8-4-4C-217.5,422.3-215.7,420.5-213.5,420.5z M-213.5,432.5c1.1,0,2,0.9,2,2c0,1.1-0.9,2-2,2  c-1.1,0-2-0.9-2-2C-215.5,433.4-214.6,432.5-213.5,432.5z M-195.5,420.5c2.2,0,4,1.8,4,4c0,2.2-1.8,4-4,4c-2.2,0-4-1.8-4-4  C-199.5,422.3-197.7,420.5-195.5,420.5z M-195.5,432.5c1.1,0,2,0.9,2,2c0,1.1-0.9,2-2,2c-1.1,0-2-0.9-2-2  C-197.5,433.4-196.6,432.5-195.5,432.5z M-167.5,404.5c1.1,0,2,0.9,2,2c0,1.1-0.9,2-2,2c-1.1,0-2-0.9-2-2  C-169.5,405.4-168.6,404.5-167.5,404.5z" style="fill-rule: evenodd; clip-rule: evenodd;"></path></g><g id="SvgjsG2403" featurekey="Q4qmbg-0" transform="matrix(1.6559013566136709,0,0,1.6559013566136709,76.21162666119248,5.985437181319337)" fill="#678e35"><path d="M11.18 9.04 c0 0.92 -0.34 1.82 -0.88 2.54 c1.02 0.88 1.66 2.2 1.66 3.64 c0 2.64 -2.12 4.78 -4.76 4.78 l-6.12 0 l0 -15 l6.12 0 c2.22 0 3.98 1.82 3.98 4.04 z M4.28 7.66 l0 2.78 l2.98 0 c0.38 -0.1 0.72 -0.72 0.72 -1.4 c0 -0.74 -0.34 -1.38 -0.78 -1.38 l-2.92 0 z M7.2 17.34 c0.86 0 1.54 -0.96 1.54 -2.12 c0 -1.14 -0.66 -2.08 -1.48 -2.12 l-2.98 0 l0 4.24 l2.92 0 z M20.047708333333333 5 l6.16 15 l-3.44 0 l-1.22 -2.88 l-5.1 0 l-1.18 2.88 l-3.46 0 l6.18 -15 l2.06 0 z M17.467708333333334 14.46 l3.08 0 l-1.54 -4.32 c-0.46 1.24 -1.02 2.92 -1.54 4.32 z M36.775416666666665 15.440000000000001 l2.12 2.12 c-1.54 1.72 -3.66 2.62 -5.9 2.62 c-4.28 0 -7.7 -3.32 -7.7 -7.68 c0 -4.34 3.42 -7.66 7.7 -7.66 c2.24 0 4.36 0.9 5.92 2.64 l-2.16 2.16 c-0.84 -1.4 -2.28 -2.14 -3.76 -2.14 c-2.66 0 -4.5 2.42 -4.5 5 s1.82 5.02 4.5 5.02 c1.14 0 2.26 -0.34 3.78 -2.08 z M55.52312499999999 5 l-7.5 6.34 c2.26 2.68 5.06 6.04 7.26 8.66 l-4.28 0 l-5.4 -6.66 l-1.4 1.16 l0 5.5 l-3.2 0 l0 -15 l3.2 0 l0 5.72 c2.22 -1.9 4.52 -3.84 6.7 -5.72 l4.62 0 z M66.75083333333333 5 l0 2.66 l-4.34 0 l0 12.34 l-3.22 0 l0 -12.34 l-4.34 0 l0 -2.66 l11.9 0 z M71.09854166666666 17.34 l7.64 0 l0 2.66 l-10.84 0 l0 -15 l10.48 0 l0 2.66 l-7.28 0 l0 3.22 l5.96 0 l0 2.68 l-5.96 0 l0 3.78 z M86.44624999999998 11.08 c2.4 0.72 5.12 1.88 5.12 4.78 c0 2.94 -2.56 4.32 -5.78 4.32 c-2.64 0 -4.34 -1.1 -5.94 -2.82 l2.24 -2.22 c0.54 1.12 2.2 2.38 3.7 2.38 c1.08 -0.02 2.56 -0.3 2.56 -1.66 c0 -1.32 -1.5 -1.86 -2.74 -2.24 c-2.26 -0.68 -5 -1.8 -5 -4.64 c0 -2.72 2.56 -4.14 5.18 -4.14 c2.24 0 4.34 1.1 5.92 2.84 l-2.16 2.16 c-0.68 -0.9 -2.08 -2.34 -3.76 -2.34 c-0.96 0 -1.98 0.42 -1.98 1.5 c0 1.22 1.5 1.72 2.64 2.08 z M103.83395833333331 5 l0 2.66 l-4.34 0 l0 12.34 l-3.22 0 l0 -12.34 l-4.34 0 l0 -2.66 l11.9 0 z M120.16937499999997 9.04 c0 0.92 -0.34 1.82 -0.88 2.54 c1.02 0.88 1.66 2.2 1.66 3.64 c0 2.64 -2.12 4.78 -4.76 4.78 l-6.12 0 l0 -15 l6.12 0 c2.22 0 3.98 1.82 3.98 4.04 z M113.26937499999998 7.66 l0 2.78 l2.98 0 c0.38 -0.1 0.72 -0.72 0.72 -1.4 c0 -0.74 -0.34 -1.38 -0.78 -1.38 l-2.92 0 z M116.18937499999998 17.34 c0.86 0 1.54 -0.96 1.54 -2.12 c0 -1.14 -0.66 -2.08 -1.48 -2.12 l-2.98 0 l0 4.24 l2.92 0 z M131.2770833333333 5 l3.22 0 l0 9.02 c0 2.46 -1 6.16 -6.2 6.16 c-5.18 0 -6.22 -3.7 -6.22 -6.16 l0 -9.02 l3.2 0 l0 9.02 c0 0.74 0.16 3.5 3.02 3.5 s2.98 -2.76 2.98 -3.5 l0 -9.02 z M149.90479166666665 12.5 c0 4.14 -3.26 7.48 -7.32 7.5 l-6.02 0 l0 -15 l6.02 0 c4.06 0.02 7.32 3.38 7.32 7.5 z M142.56479166666665 17.34 c2.46 -0.02 4.14 -2.42 4.14 -4.84 s-1.7 -4.8 -4.14 -4.84 l-2.8 0 l0 9.68 l2.8 0 z M165.09249999999997 12.5 c0 4.14 -3.26 7.48 -7.32 7.5 l-6.02 0 l0 -15 l6.02 0 c4.06 0.02 7.32 3.38 7.32 7.5 z M157.75249999999997 17.34 c2.46 -0.02 4.14 -2.42 4.14 -4.84 s-1.7 -4.8 -4.14 -4.84 l-2.8 0 l0 9.68 l2.8 0 z M176.5802083333333 5 l3.84 0 l-6.2 9.08 l0 5.92 l-3.22 0 l0 -5.92 l-6.2 -9.08 l3.84 0 l3.96 6.06 z"></path></g></svg>